Coordinates
version=1
nRows=6
nColumns=36
inDegrees=yes

Units are S.I. units (second, meters, Newtons, ...)
If the header above contains a line with 'inDegrees', this indicates whether rotational values are in degrees (yes) or radians (no).

endheader
time	pelvis_tilt	pelvis_list	pelvis_rotation	pelvis_tx	pelvis_ty	pelvis_tz	hip_flexion_r	hip_adduction_r	hip_rotation_r	knee_angle_r	knee_angle_r_beta	ankle_angle_r	subtalar_angle_r	mtp_angle_r	hip_flexion_l	hip_adduction_l	hip_rotation_l	knee_angle_l	knee_angle_l_beta	ankle_angle_l	subtalar_angle_l	mtp_angle_l	lumbar_extension	lumbar_bending	lumbar_rotation	arm_flex_r	arm_add_r	arm_rot_r	elbow_flex_r	pro_sup_r	arm_flex_l	arm_add_l	arm_rot_l	elbow_flex_l	pro_sup_l
      0.00000000	     -0.33548005	     -1.16529442	     -0.88769141	     -0.16266532	      0.92020357	      0.10076825	      3.44635196	     -4.01261163	     -4.97700386	      5.52232604	      0.09638277	      6.77680211	      3.19407281	     -6.58873451	      1.65387178	     -9.13623359	     -6.34753894	      5.24634426	      0.09156598	      9.84679151	      6.64583865	     -6.58873451	     -0.97426691	      3.29492870	     -1.94053388	     29.37831763	      6.36278093	     53.06936268	    123.29478281	    105.48833687	     23.05043644	      1.13965288	     46.88429628	    129.80767715	    105.94480671
      0.01666670	     -1.69151041	     -0.62647582	     -0.97407041	     -0.16198460	      0.91894328	      0.10046748	      4.44646744	     -4.18387986	     -4.95091087	      4.21405956	      0.07354921	      7.88482142	      4.95514902	     -6.70945548	      2.42121484	     -8.33379463	     -6.96856609	      3.97297357	      0.06934147	      9.01753419	      7.86716137	     -6.70945548	      1.13364612	      2.53703554	     -0.53289552	     28.76914881	      5.48481106	     53.14677697	    125.33688591	    103.37560561	     23.93895166	      0.93327743	     49.68378084	    130.66215063	    104.33253576
      0.03333330	     -2.80194710	     -0.24546820	     -1.36550343	     -0.16171558	      0.91910699	      0.10067336	      5.34921435	     -4.23091929	     -5.48135377	      3.27448419	      0.05715053	      6.66702450	      4.36839546	     -6.91633808	      3.44363356	     -7.92817462	     -7.73531840	      3.60850118	      0.06298023	      7.92158453	      8.26301864	     -6.91633808	      2.13242092	      1.94471789	      0.51793641	     27.32691288	      5.15540270	     54.03203506	    126.10668274	     99.65418399	     23.84605561	      0.76014445	     51.05111753	    131.41004454	     99.81757338
      0.05000000	     -3.03115642	     -0.02265302	     -1.43458598	     -0.16231044	      0.91842686	      0.10009381	      5.46861654	     -4.48905323	     -5.52898878	      2.80969386	      0.04903841	      6.56267486	      4.62459797	     -6.95837193	      3.48945750	     -7.62639434	     -7.86193075	      2.97680297	      0.05195501	      7.37140275	      8.09206183	     -6.95837193	      2.08508209	      1.65762309	      0.91968655	     26.44012974	      5.16567207	     54.70279068	    126.42941217	     98.98868454	     24.05082063	      0.79928296	     51.75052225	    131.67620287	     98.70988176
      0.06666670	     -3.26745033	      0.08981430	     -1.65856314	     -0.16360951	      0.91921122	      0.09965975	      5.70597873	     -4.58742432	     -5.29480036	      2.50437945	      0.04370967	      6.59589648	      4.66961762	     -7.24356005	      3.55316394	     -7.49012492	     -8.25230175	      2.56520136	      0.04477121	      7.36531850	      8.68760863	     -7.24356005	      2.10106704	      1.57921273	      1.64664760	     25.77166450	      5.01164236	     54.93730680	    126.42002550	     99.66738793	     24.76606327	      0.97332687	     53.33044393	    131.30358507	     94.27524513
      0.08333330	     -3.30696041	      0.18943541	     -1.69820312	     -0.16422503	      0.91988050	      0.09900402	      5.72725769	     -4.74109966	     -5.04029331	      2.40553225	      0.04198446	      6.41783489	      4.76113956	     -7.36953023	      3.58598959	     -7.31925597	     -8.17747014	      2.31306199	      0.04037055	      7.29434462	      8.76443258	     -7.36953023	      2.03807824	      1.56999622	      1.71597036	     25.51836751	      5.08009972	     55.08462442	    126.14706066	     98.38729699	     25.23352203	      1.00295263	     53.89217147	    131.08649548	     91.71114357
